<?xml version="1.0" standalone="no"?>
<!DOCTYPE svg PUBLIC "-//W3C//DTD SVG 20010904//EN"
 "http://www.w3.org/TR/2001/REC-SVG-20010904/DTD/svg10.dtd">
<svg version="1.0" xmlns="http://www.w3.org/2000/svg"
 width="294.000000pt" height="294.000000pt" viewBox="0 0 294.000000 294.000000"
 preserveAspectRatio="xMidYMid meet">

<g transform="translate(0.000000,294.000000) scale(0.100000,-0.100000)"
fill="#000000" stroke="none">
<path d="M0 2730 l0 -210 210 0 210 0 0 210 0 210 -210 0 -210 0 0 -210z m360
0 l0 -150 -150 0 -150 0 0 150 0 150 150 0 150 0 0 -150z"/>
<path d="M120 2730 l0 -90 90 0 90 0 0 90 0 90 -90 0 -90 0 0 -90z"/>
<path d="M480 2820 l0 -120 30 0 30 0 0 60 0 60 60 0 60 0 0 -30 c0 -27 -3
-30 -30 -30 -27 0 -30 -3 -30 -30 0 -27 3 -30 30 -30 27 0 30 3 30 30 0 27 3
30 30 30 l30 0 0 -60 0 -60 -120 0 -120 0 0 -60 0 -60 30 0 c27 0 30 3 30 30
0 27 3 30 30 30 27 0 30 -3 30 -30 0 -27 3 -30 30 -30 27 0 30 3 30 30 0 27 3
30 30 30 l30 0 0 -60 0 -60 -30 0 -30 0 0 -90 0 -90 -30 0 c-27 0 -30 -3 -30
-30 0 -27 -3 -30 -30 -30 l-30 0 0 60 0 60 -90 0 -90 0 0 30 c0 27 3 30 30 30
27 0 30 3 30 30 l0 30 -90 0 -90 0 0 -30 c0 -27 -3 -30 -30 -30 -27 0 -30 -3
-30 -30 0 -27 -3 -30 -30 -30 l-30 0 0 60 0 60 -60 0 -60 0 0 -30 c0 -27 3
-30 30 -30 l30 0 0 -60 0 -60 -30 0 -30 0 0 -60 0 -60 30 0 c27 0 30 -3 30
-30 0 -27 -3 -30 -30 -30 -27 0 -30 -3 -30 -30 0 -27 3 -30 30 -30 l30 0 0
-60 0 -60 -30 0 c-27 0 -30 -3 -30 -30 0 -27 3 -30 30 -30 l30 0 0 -60 0 -60
120 0 120 0 0 -30 0 -30 60 0 60 0 0 30 0 30 -60 0 -60 0 0 30 0 30 60 0 60 0
0 30 c0 27 -3 30 -30 30 -27 0 -30 3 -30 30 l0 30 60 0 60 0 0 -30 c0 -27 3
-30 30 -30 27 0 30 3 30 30 0 27 3 30 30 30 27 0 30 -3 30 -30 0 -27 3 -30 30
-30 l30 0 0 -60 0 -60 -60 0 -60 0 0 30 c0 27 -3 30 -30 30 l-30 0 0 -90 0
-90 -120 0 -120 0 0 30 0 30 -90 0 -90 0 0 -30 c0 -27 -3 -30 -30 -30 l-30 0
0 -60 0 -60 30 0 30 0 0 -60 0 -60 -30 0 c-27 0 -30 -3 -30 -30 0 -27 3 -30
30 -30 27 0 30 -3 30 -30 0 -27 -3 -30 -30 -30 -27 0 -30 -3 -30 -30 0 -27 3
-30 30 -30 27 0 30 -3 30 -30 0 -27 3 -30 30 -30 27 0 30 -3 30 -30 l0 -30
-60 0 -60 0 0 -30 c0 -27 3 -30 30 -30 l30 0 0 -90 0 -90 -30 0 -30 0 0 -60 0
-60 30 0 30 0 0 -90 0 -90 -30 0 c-27 0 -30 -3 -30 -30 l0 -30 90 0 90 0 0 30
c0 27 3 30 30 30 27 0 30 3 30 30 l0 30 -60 0 -60 0 0 60 0 60 -30 0 -30 0 0
60 0 60 30 0 c27 0 30 -3 30 -30 l0 -30 90 0 90 0 0 -30 0 -30 -60 0 -60 0 0
-30 0 -30 60 0 60 0 0 -30 0 -30 60 0 60 0 0 -30 c0 -27 -3 -30 -30 -30 -27 0
-30 -3 -30 -30 0 -27 3 -30 30 -30 27 0 30 3 30 30 0 27 3 30 30 30 l30 0 0
-60 0 -60 30 0 c27 0 30 3 30 30 0 27 3 30 30 30 l30 0 0 -60 0 -60 -60 0 -60
0 0 -60 0 -60 30 0 30 0 0 -60 0 -60 -30 0 -30 0 0 -60 0 -60 30 0 30 0 0 60
0 60 90 0 90 0 0 -30 0 -30 -60 0 -60 0 0 -30 0 -30 60 0 60 0 0 30 0 30 60 0
60 0 0 -30 c0 -27 3 -30 30 -30 27 0 30 3 30 30 0 27 3 30 30 30 27 0 30 -3
30 -30 l0 -30 90 0 90 0 0 30 c0 27 3 30 30 30 l30 0 0 60 0 60 60 0 60 0 0
30 0 30 120 0 120 0 0 -60 0 -60 30 0 c27 0 30 3 30 30 0 27 3 30 30 30 27 0
30 3 30 30 0 27 -3 30 -30 30 -27 0 -30 3 -30 30 0 27 3 30 30 30 27 0 30 3
30 30 l0 30 60 0 60 0 0 -30 c0 -27 -3 -30 -30 -30 l-30 0 0 -90 0 -90 -30 0
c-27 0 -30 -3 -30 -30 0 -27 -3 -30 -30 -30 -27 0 -30 -3 -30 -30 0 -27 3 -30
30 -30 27 0 30 3 30 30 0 27 3 30 30 30 27 0 30 -3 30 -30 0 -27 3 -30 30 -30
27 0 30 3 30 30 0 27 3 30 30 30 l30 0 0 60 0 60 90 0 90 0 0 30 c0 27 -3 30
-30 30 -27 0 -30 3 -30 30 0 27 3 30 30 30 27 0 30 3 30 30 0 27 3 30 30 30
l30 0 0 -60 0 -60 60 0 60 0 0 -30 c0 -27 -3 -30 -30 -30 l-30 0 0 -90 0 -90
90 0 90 0 0 30 0 30 60 0 60 0 0 -30 c0 -27 3 -30 30 -30 l30 0 0 90 0 90 30
0 c27 0 30 3 30 30 l0 30 60 0 60 0 0 -60 0 -60 30 0 30 0 0 -60 0 -60 90 0
90 0 0 30 c0 27 -3 30 -30 30 -27 0 -30 3 -30 30 0 27 3 30 30 30 27 0 30 3
30 30 0 27 -3 30 -30 30 -27 0 -30 3 -30 30 0 27 3 30 30 30 l30 0 0 60 0 60
-60 0 -60 0 0 30 c0 27 -3 30 -30 30 -27 0 -30 -3 -30 -30 0 -27 -3 -30 -30
-30 l-30 0 0 60 0 60 90 0 90 0 0 -30 c0 -27 3 -30 30 -30 27 0 30 3 30 30 0
27 -3 30 -30 30 l-30 0 0 120 0 120 30 0 c27 0 30 3 30 30 0 27 -3 30 -30 30
-27 0 -30 3 -30 30 0 27 -3 30 -30 30 -27 0 -30 3 -30 30 l0 30 -60 0 -60 0 0
30 0 30 60 0 60 0 0 30 c0 27 3 30 30 30 27 0 30 -3 30 -30 0 -27 3 -30 30
-30 27 0 30 3 30 30 0 27 -3 30 -30 30 l-30 0 0 90 0 90 30 0 30 0 0 60 0 60
-30 0 c-27 0 -30 -3 -30 -30 0 -27 -3 -30 -30 -30 l-30 0 0 60 0 60 -30 0
c-27 0 -30 -3 -30 -30 0 -27 -3 -30 -30 -30 l-30 0 0 150 0 150 60 0 60 0 0
-30 c0 -27 -3 -30 -30 -30 -27 0 -30 -3 -30 -30 l0 -30 60 0 60 0 0 -30 c0
-27 3 -30 30 -30 27 0 30 3 30 30 0 27 -3 30 -30 30 l-30 0 0 120 0 120 30 0
c27 0 30 3 30 30 0 27 -3 30 -30 30 l-30 0 0 60 0 60 30 0 c27 0 30 3 30 30 0
27 -3 30 -30 30 l-30 0 0 90 0 90 30 0 c27 0 30 3 30 30 l0 30 -60 0 -60 0 0
30 c0 27 -3 30 -30 30 -27 0 -30 3 -30 30 0 27 -3 30 -30 30 -27 0 -30 3 -30
30 l0 30 60 0 60 0 0 -30 0 -30 60 0 60 0 0 60 0 60 -120 0 -120 0 0 -30 c0
-27 -3 -30 -30 -30 -27 0 -30 3 -30 30 0 27 -3 30 -30 30 -27 0 -30 -3 -30
-30 0 -27 -3 -30 -30 -30 l-30 0 0 -60 0 -60 -30 0 c-27 0 -30 3 -30 30 l0 30
-60 0 -60 0 0 30 0 30 60 0 60 0 0 90 0 90 -30 0 c-27 0 -30 -3 -30 -30 0 -27
-3 -30 -30 -30 l-30 0 0 60 0 60 -30 0 -30 0 0 -60 0 -60 30 0 30 0 0 -60 0
-60 -60 0 -60 0 0 150 0 150 30 0 c27 0 30 3 30 30 0 27 -3 30 -30 30 -27 0
-30 3 -30 30 l0 30 60 0 60 0 0 -60 0 -60 30 0 c27 0 30 3 30 30 0 27 3 30 30
30 l30 0 0 90 0 90 -30 0 c-27 0 -30 -3 -30 -30 l0 -30 -90 0 -90 0 0 30 0 30
-60 0 -60 0 0 -30 0 -30 -120 0 -120 0 0 30 0 30 -60 0 -60 0 0 -30 c0 -27 -3
-30 -30 -30 -27 0 -30 3 -30 30 l0 30 -60 0 -60 0 0 -30 c0 -27 -3 -30 -30
-30 -27 0 -30 3 -30 30 l0 30 -60 0 -60 0 0 -30 c0 -27 -3 -30 -30 -30 -27 0
-30 3 -30 30 l0 30 -90 0 -90 0 0 -30 0 -30 -60 0 -60 0 0 -30 c0 -27 -3 -30
-30 -30 l-30 0 0 60 0 60 -30 0 c-27 0 -30 -3 -30 -30 l0 -30 -60 0 -60 0 0
30 c0 27 -3 30 -30 30 -27 0 -30 -3 -30 -30 0 -27 3 -30 30 -30 27 0 30 -3 30
-30 0 -27 3 -30 30 -30 27 0 30 -3 30 -30 l0 -30 90 0 90 0 0 -90 0 -90 -30 0
-30 0 0 -90 0 -90 -30 0 c-27 0 -30 3 -30 30 0 27 -3 30 -30 30 -27 0 -30 -3
-30 -30 l0 -30 -60 0 -60 0 0 30 c0 27 3 30 30 30 l30 0 0 150 0 150 -30 0
c-27 0 -30 3 -30 30 0 27 -3 30 -30 30 -27 0 -30 3 -30 30 0 27 -3 30 -30 30
-27 0 -30 3 -30 30 l0 30 -60 0 -60 0 0 -120z m780 0 l0 -60 30 0 30 0 0 -60
0 -60 -30 0 -30 0 0 60 0 60 -60 0 -60 0 0 -90 0 -90 30 0 c27 0 30 -3 30 -30
0 -27 3 -30 30 -30 27 0 30 3 30 30 0 27 3 30 30 30 27 0 30 -3 30 -30 0 -27
-3 -30 -30 -30 -27 0 -30 -3 -30 -30 0 -27 3 -30 30 -30 27 0 30 -3 30 -30 0
-27 3 -30 30 -30 27 0 30 -3 30 -30 0 -27 -3 -30 -30 -30 -27 0 -30 3 -30 30
l0 30 -60 0 -60 0 0 -30 c0 -27 -3 -30 -30 -30 l-30 0 0 -60 0 -60 60 0 60 0
0 30 c0 27 3 30 30 30 l30 0 0 -60 0 -60 -90 0 -90 0 0 -30 c0 -27 3 -30 30
-30 27 0 30 -3 30 -30 0 -27 3 -30 30 -30 27 0 30 3 30 30 l0 30 60 0 60 0 0
-30 c0 -27 3 -30 30 -30 l30 0 0 60 0 60 60 0 60 0 0 30 c0 27 3 30 30 30 l30
0 0 90 0 90 30 0 c27 0 30 3 30 30 0 27 3 30 30 30 l30 0 0 60 0 60 -30 0
c-27 0 -30 -3 -30 -30 0 -27 -3 -30 -30 -30 l-30 0 0 60 0 60 30 0 c27 0 30 3
30 30 0 27 -3 30 -30 30 -27 0 -30 3 -30 30 0 27 -3 30 -30 30 -27 0 -30 -3
-30 -30 l0 -30 -90 0 -90 0 0 30 c0 27 3 30 30 30 27 0 30 3 30 30 0 27 -3 30
-30 30 -27 0 -30 3 -30 30 0 27 3 30 30 30 27 0 30 -3 30 -30 l0 -30 90 0 90
0 0 30 c0 27 3 30 30 30 27 0 30 -3 30 -30 0 -27 3 -30 30 -30 27 0 30 3 30
30 0 27 3 30 30 30 27 0 30 -3 30 -30 0 -27 -3 -30 -30 -30 -27 0 -30 -3 -30
-30 l0 -30 60 0 60 0 0 -30 0 -30 -60 0 -60 0 0 -30 0 -30 90 0 90 0 0 -60 0
-60 30 0 c27 0 30 3 30 30 0 27 3 30 30 30 27 0 30 -3 30 -30 0 -27 -3 -30
-30 -30 -27 0 -30 -3 -30 -30 0 -27 3 -30 30 -30 27 0 30 -3 30 -30 0 -27 3
-30 30 -30 l30 0 0 120 0 120 -30 0 c-27 0 -30 3 -30 30 l0 30 -60 0 -60 0 0
30 0 30 60 0 60 0 0 30 c0 27 3 30 30 30 27 0 30 3 30 30 l0 30 60 0 60 0 0
-30 0 -30 -60 0 -60 0 0 -30 0 -30 60 0 60 0 0 -30 c0 -27 -3 -30 -30 -30
l-30 0 0 -150 0 -150 -30 0 c-27 0 -30 -3 -30 -30 l0 -30 60 0 60 0 0 -30 0
-30 60 0 60 0 0 -30 c0 -27 3 -30 30 -30 27 0 30 -3 30 -30 0 -27 3 -30 30
-30 27 0 30 3 30 30 0 27 3 30 30 30 27 0 30 3 30 30 0 27 3 30 30 30 27 0 30
3 30 30 l0 30 60 0 60 0 0 -30 0 -30 -60 0 -60 0 0 -60 0 -60 -30 0 -30 0 0
-60 0 -60 30 0 c27 0 30 3 30 30 0 27 3 30 30 30 27 0 30 3 30 30 l0 30 60 0
60 0 0 -30 c0 -27 -3 -30 -30 -30 -27 0 -30 -3 -30 -30 0 -27 3 -30 30 -30 27
0 30 -3 30 -30 l0 -30 60 0 60 0 0 -30 c0 -27 -3 -30 -30 -30 -27 0 -30 -3
-30 -30 l0 -30 -60 0 -60 0 0 -30 0 -30 -60 0 -60 0 0 -60 0 -60 30 0 c27 0
30 -3 30 -30 0 -27 -3 -30 -30 -30 -27 0 -30 3 -30 30 0 27 -3 30 -30 30 -27
0 -30 -3 -30 -30 l0 -30 -60 0 -60 0 0 -30 c0 -27 -3 -30 -30 -30 l-30 0 0 60
0 60 -30 0 -30 0 0 -90 0 -90 -90 0 -90 0 0 30 c0 27 -3 30 -30 30 l-30 0 0
-60 0 -60 90 0 90 0 0 -60 0 -60 -30 0 c-27 0 -30 3 -30 30 l0 30 -60 0 -60 0
0 30 c0 27 -3 30 -30 30 -27 0 -30 -3 -30 -30 l0 -30 -60 0 -60 0 0 -30 c0
-27 3 -30 30 -30 27 0 30 -3 30 -30 0 -27 -3 -30 -30 -30 -27 0 -30 -3 -30
-30 l0 -30 -60 0 -60 0 0 -30 0 -30 -60 0 -60 0 0 -30 c0 -27 -3 -30 -30 -30
-27 0 -30 -3 -30 -30 0 -27 -3 -30 -30 -30 -27 0 -30 -3 -30 -30 l0 -30 -60 0
-60 0 0 -60 0 -60 30 0 c27 0 30 3 30 30 l0 30 90 0 90 0 0 30 c0 27 3 30 30
30 27 0 30 3 30 30 0 27 3 30 30 30 l30 0 0 -60 0 -60 -60 0 -60 0 0 -30 0
-30 60 0 60 0 0 -60 0 -60 -30 0 c-27 0 -30 3 -30 30 0 27 -3 30 -30 30 -27 0
-30 3 -30 30 l0 30 -90 0 -90 0 0 -30 0 -30 60 0 60 0 0 -30 0 -30 -60 0 -60
0 0 -30 c0 -27 3 -30 30 -30 27 0 30 -3 30 -30 0 -27 3 -30 30 -30 27 0 30 3
30 30 l0 30 90 0 90 0 0 -90 0 -90 -60 0 -60 0 0 30 c0 27 3 30 30 30 27 0 30
3 30 30 l0 30 -60 0 -60 0 0 -30 0 -30 -60 0 -60 0 0 60 0 60 -60 0 -60 0 0
-30 0 -30 -90 0 -90 0 0 -30 c0 -27 -3 -30 -30 -30 -27 0 -30 3 -30 30 0 27
-3 30 -30 30 -27 0 -30 -3 -30 -30 0 -27 -3 -30 -30 -30 -27 0 -30 -3 -30 -30
l0 -30 120 0 120 0 0 30 0 30 60 0 60 0 0 -90 0 -90 -30 0 c-27 0 -30 -3 -30
-30 l0 -30 -60 0 -60 0 0 60 0 60 -60 0 -60 0 0 -30 0 -30 -60 0 -60 0 0 -30
c0 -27 3 -30 30 -30 27 0 30 -3 30 -30 0 -27 3 -30 30 -30 27 0 30 3 30 30 0
27 3 30 30 30 27 0 30 -3 30 -30 l0 -30 60 0 60 0 0 -30 0 -30 -60 0 -60 0 0
-60 0 -60 -60 0 -60 0 0 60 0 60 -30 0 -30 0 0 -60 0 -60 -30 0 c-27 0 -30 3
-30 30 0 27 -3 30 -30 30 -27 0 -30 3 -30 30 0 27 -3 30 -30 30 -27 0 -30 3
-30 30 0 27 -3 30 -30 30 -27 0 -30 -3 -30 -30 0 -27 -3 -30 -30 -30 -27 0
-30 3 -30 30 0 27 3 30 30 30 27 0 30 3 30 30 0 27 -3 30 -30 30 -27 0 -30 3
-30 30 0 27 3 30 30 30 27 0 30 3 30 30 l0 30 60 0 60 0 0 60 0 60 -30 0 c-27
0 -30 -3 -30 -30 l0 -30 -60 0 -60 0 0 30 0 30 60 0 60 0 0 30 0 30 -120 0
-120 0 0 60 0 60 30 0 c27 0 30 -3 30 -30 l0 -30 60 0 60 0 0 30 c0 27 -3 30
-30 30 -27 0 -30 3 -30 30 l0 30 -150 0 -150 0 0 60 0 60 -30 0 c-27 0 -30 -3
-30 -30 l0 -30 -60 0 -60 0 0 30 c0 27 3 30 30 30 27 0 30 3 30 30 0 27 -3 30
-30 30 -27 0 -30 3 -30 30 0 27 3 30 30 30 27 0 30 -3 30 -30 l0 -30 60 0 60
0 0 30 c0 27 -3 30 -30 30 l-30 0 0 60 0 60 -30 0 c-27 0 -30 3 -30 30 l0 30
60 0 60 0 0 -60 0 -60 60 0 60 0 0 30 c0 27 -3 30 -30 30 -27 0 -30 3 -30 30
0 27 3 30 30 30 27 0 30 3 30 30 0 27 -3 30 -30 30 -27 0 -30 3 -30 30 0 27 3
30 30 30 27 0 30 -3 30 -30 l0 -30 60 0 60 0 0 30 c0 27 3 30 30 30 27 0 30
-3 30 -30 0 -27 3 -30 30 -30 27 0 30 3 30 30 l0 30 60 0 60 0 0 -30 0 -30
-60 0 -60 0 0 -60 0 -60 120 0 120 0 0 30 0 30 60 0 60 0 0 30 c0 27 3 30 30
30 l30 0 0 60 0 60 -60 0 -60 0 0 -30 c0 -27 -3 -30 -30 -30 -27 0 -30 -3 -30
-30 0 -27 -3 -30 -30 -30 l-30 0 0 60 0 60 -30 0 c-27 0 -30 3 -30 30 l0 30
-60 0 -60 0 0 -30 c0 -27 -3 -30 -30 -30 l-30 0 0 60 0 60 -30 0 c-27 0 -30 3
-30 30 0 27 3 30 30 30 27 0 30 -3 30 -30 0 -27 3 -30 30 -30 27 0 30 3 30 30
0 27 3 30 30 30 27 0 30 -3 30 -30 l0 -30 60 0 60 0 0 -60 0 -60 60 0 60 0 0
30 c0 27 -3 30 -30 30 -27 0 -30 3 -30 30 0 27 3 30 30 30 27 0 30 -3 30 -30
0 -27 3 -30 30 -30 l30 0 0 60 0 60 -90 0 -90 0 0 30 c0 27 3 30 30 30 27 0
30 3 30 30 l0 30 60 0 60 0 0 90 0 90 -30 0 -30 0 0 -60 0 -60 -30 0 c-27 0
-30 3 -30 30 l0 30 -60 0 -60 0 0 -30 c0 -27 3 -30 30 -30 27 0 30 -3 30 -30
0 -27 -3 -30 -30 -30 -27 0 -30 -3 -30 -30 0 -27 -3 -30 -30 -30 -27 0 -30 3
-30 30 0 27 -3 30 -30 30 -27 0 -30 -3 -30 -30 0 -27 -3 -30 -30 -30 -27 0
-30 3 -30 30 0 27 3 30 30 30 27 0 30 3 30 30 0 27 3 30 30 30 27 0 30 3 30
30 0 27 3 30 30 30 27 0 30 3 30 30 l0 30 90 0 90 0 0 60 0 60 60 0 60 0 0
-30 0 -30 60 0 60 0 0 30 c0 27 -3 30 -30 30 -27 0 -30 3 -30 30 l0 30 -60 0
-60 0 0 30 0 30 -60 0 -60 0 0 30 0 30 60 0 60 0 0 30 c0 27 -3 30 -30 30 -27
0 -30 3 -30 30 0 27 -3 30 -30 30 -27 0 -30 -3 -30 -30 0 -27 -3 -30 -30 -30
-27 0 -30 -3 -30 -30 0 -27 -3 -30 -30 -30 -27 0 -30 -3 -30 -30 0 -27 3 -30
30 -30 l30 0 0 -90 0 -90 -30 0 -30 0 0 90 0 90 -60 0 -60 0 0 -30 c0 -27 3
-30 30 -30 l30 0 0 -60 0 -60 -30 0 c-27 0 -30 3 -30 30 0 27 -3 30 -30 30
-27 0 -30 3 -30 30 0 27 -3 30 -30 30 -27 0 -30 3 -30 30 0 27 -3 30 -30 30
-27 0 -30 -3 -30 -30 0 -27 -3 -30 -30 -30 -27 0 -30 -3 -30 -30 l0 -30 -60 0
-60 0 0 30 c0 27 -3 30 -30 30 l-30 0 0 -90 0 -90 -60 0 -60 0 0 30 c0 27 3
30 30 30 l30 0 0 60 0 60 -30 0 c-27 0 -30 3 -30 30 l0 30 90 0 90 0 0 30 0
30 -60 0 -60 0 0 30 c0 27 3 30 30 30 27 0 30 3 30 30 0 27 -3 30 -30 30 -27
0 -30 3 -30 30 0 27 3 30 30 30 27 0 30 3 30 30 0 27 3 30 30 30 27 0 30 -3
30 -30 0 -27 3 -30 30 -30 27 0 30 -3 30 -30 l0 -30 60 0 60 0 0 -60 0 -60 30
0 c27 0 30 -3 30 -30 l0 -30 60 0 60 0 0 30 c0 27 -3 30 -30 30 -27 0 -30 3
-30 30 0 27 3 30 30 30 27 0 30 3 30 30 0 27 3 30 30 30 27 0 30 3 30 30 0 27
3 30 30 30 l30 0 0 -60 0 -60 30 0 30 0 0 60 0 60 60 0 60 0 0 30 c0 27 3 30
30 30 27 0 30 -3 30 -30 0 -27 -3 -30 -30 -30 -27 0 -30 -3 -30 -30 0 -27 3
-30 30 -30 27 0 30 -3 30 -30 0 -27 3 -30 30 -30 l30 0 0 90 0 90 60 0 60 0 0
30 c0 27 -3 30 -30 30 l-30 0 0 60 0 60 -30 0 -30 0 0 -60 0 -60 -30 0 -30 0
0 60 0 60 30 0 30 0 0 90 0 90 -30 0 c-27 0 -30 3 -30 30 0 27 3 30 30 30 27
0 30 -3 30 -30 0 -27 3 -30 30 -30 l30 0 0 60 0 60 60 0 60 0 0 -60z m300
-270 l0 -90 -90 0 -90 0 0 90 0 90 90 0 90 0 0 -90z m0 -210 l0 -60 -60 0 -60
0 0 60 0 60 60 0 60 0 0 -60z m-1440 -150 c0 -27 -3 -30 -30 -30 -27 0 -30 3
-30 30 0 27 3 30 30 30 27 0 30 -3 30 -30z m420 -240 c0 -27 -3 -30 -30 -30
-27 0 -30 3 -30 30 0 27 3 30 30 30 27 0 30 -3 30 -30z m2340 -180 c0 -27 -3
-30 -30 -30 -27 0 -30 3 -30 30 0 27 3 30 30 30 27 0 30 -3 30 -30z m-2700
-180 c0 -27 3 -30 30 -30 l30 0 0 -90 0 -90 -60 0 -60 0 0 -30 c0 -27 -3 -30
-30 -30 -27 0 -30 3 -30 30 0 27 3 30 30 30 27 0 30 3 30 30 0 27 3 30 30 30
l30 0 0 60 0 60 -30 0 c-27 0 -30 3 -30 30 0 27 3 30 30 30 27 0 30 -3 30 -30z
m300 -120 l0 -90 -90 0 -90 0 0 90 0 90 90 0 90 0 0 -90z m2160 0 l0 -90 -90
0 -90 0 0 90 0 90 90 0 90 0 0 -90z m-240 -150 l0 -180 30 0 30 0 0 90 0 90
30 0 30 0 0 -90 0 -90 30 0 c27 0 30 -3 30 -30 0 -27 -3 -30 -30 -30 -27 0
-30 -3 -30 -30 l0 -30 60 0 60 0 0 60 0 60 30 0 c27 0 30 3 30 30 l0 30 -60 0
-60 0 0 60 0 60 60 0 60 0 0 -60 0 -60 60 0 60 0 0 -30 c0 -27 -3 -30 -30 -30
-27 0 -30 -3 -30 -30 0 -27 -3 -30 -30 -30 l-30 0 0 -60 0 -60 -120 0 -120 0
0 -60 0 -60 30 0 c27 0 30 3 30 30 l0 30 60 0 60 0 0 -30 c0 -27 3 -30 30 -30
l30 0 0 -60 0 -60 -60 0 -60 0 0 60 0 60 -30 0 -30 0 0 -90 0 -90 30 0 c27 0
30 -3 30 -30 0 -27 -3 -30 -30 -30 -27 0 -30 -3 -30 -30 0 -27 -3 -30 -30 -30
-27 0 -30 3 -30 30 0 27 -3 30 -30 30 l-30 0 0 -90 0 -90 -30 0 -30 0 0 60 0
60 -30 0 c-27 0 -30 -3 -30 -30 0 -27 -3 -30 -30 -30 -27 0 -30 3 -30 30 0 27
3 30 30 30 27 0 30 3 30 30 l0 30 60 0 60 0 0 30 c0 27 -3 30 -30 30 -27 0
-30 3 -30 30 0 27 -3 30 -30 30 -27 0 -30 -3 -30 -30 0 -27 -3 -30 -30 -30
-27 0 -30 -3 -30 -30 0 -27 -3 -30 -30 -30 l-30 0 0 -90 0 -90 30 0 c27 0 30
-3 30 -30 0 -27 -3 -30 -30 -30 -27 0 -30 3 -30 30 l0 30 -60 0 -60 0 0 30 c0
27 3 30 30 30 l30 0 0 60 0 60 -60 0 -60 0 0 -30 c0 -27 -3 -30 -30 -30 -27 0
-30 -3 -30 -30 0 -27 3 -30 30 -30 l30 0 0 -60 0 -60 -30 0 -30 0 0 -60 0 -60
-60 0 -60 0 0 30 c0 27 3 30 30 30 27 0 30 3 30 30 0 27 -3 30 -30 30 -27 0
-30 3 -30 30 l0 30 60 0 60 0 0 30 0 30 -60 0 -60 0 0 60 0 60 30 0 30 0 0 60
0 60 -30 0 -30 0 0 90 0 90 30 0 30 0 0 120 0 120 30 0 c27 0 30 -3 30 -30 0
-27 3 -30 30 -30 l30 0 0 60 0 60 30 0 c27 0 30 3 30 30 0 27 -3 30 -30 30
-27 0 -30 3 -30 30 0 27 3 30 30 30 27 0 30 -3 30 -30 0 -27 3 -30 30 -30 l30
0 0 -90 0 -90 -60 0 -60 0 0 -30 c0 -27 -3 -30 -30 -30 -27 0 -30 -3 -30 -30
0 -27 3 -30 30 -30 27 0 30 -3 30 -30 l0 -30 -60 0 -60 0 0 -60 0 -60 30 0 30
0 0 -90 0 -90 30 0 30 0 0 120 0 120 30 0 30 0 0 -60 0 -60 90 0 90 0 0 30 0
30 60 0 60 0 0 30 c0 27 3 30 30 30 27 0 30 3 30 30 0 27 -3 30 -30 30 -27 0
-30 3 -30 30 0 27 -3 30 -30 30 l-30 0 0 60 0 60 -30 0 c-27 0 -30 -3 -30 -30
0 -27 -3 -30 -30 -30 l-30 0 0 90 0 90 30 0 c27 0 30 3 30 30 0 27 3 30 30 30
27 0 30 3 30 30 0 27 3 30 30 30 l30 0 0 90 0 90 30 0 30 0 0 -180z m-2100
-30 l0 -30 -60 0 -60 0 0 30 0 30 60 0 60 0 0 -30z m-180 -60 c0 -27 -3 -30
-30 -30 -27 0 -30 3 -30 30 0 27 3 30 30 30 27 0 30 -3 30 -30z m1980 -240 l0
-30 60 0 60 0 0 -60 0 -60 -30 0 c-27 0 -30 3 -30 30 l0 30 -60 0 -60 0 0 60
0 60 30 0 c27 0 30 -3 30 -30z m-1680 -300 l0 -30 -60 0 -60 0 0 30 0 30 60 0
60 0 0 -30z m2400 -30 l0 -60 -30 0 c-27 0 -30 -3 -30 -30 l0 -30 -60 0 -60 0
0 30 c0 27 3 30 30 30 27 0 30 3 30 30 0 27 3 30 30 30 27 0 30 3 30 30 0 27
3 30 30 30 l30 0 0 -60z m-1260 -270 l0 -90 -90 0 -90 0 0 90 0 90 90 0 90 0
0 -90z m1080 0 l0 -90 -90 0 -90 0 0 90 0 90 90 0 90 0 0 -90z m-300 -60 c0
-27 3 -30 30 -30 27 0 30 -3 30 -30 l0 -30 -60 0 -60 0 0 60 0 60 30 0 c27 0
30 -3 30 -30z m540 -60 c0 -27 -3 -30 -30 -30 -27 0 -30 -3 -30 -30 0 -27 -3
-30 -30 -30 -27 0 -30 3 -30 30 0 27 3 30 30 30 27 0 30 3 30 30 0 27 3 30 30
30 27 0 30 -3 30 -30z m-360 -60 c0 -27 -3 -30 -30 -30 -27 0 -30 3 -30 30 0
27 3 30 30 30 27 0 30 -3 30 -30z m-240 -90 l0 -60 -30 0 -30 0 0 60 0 60 30
0 30 0 0 -60z m-480 -30 c0 -27 -3 -30 -30 -30 -27 0 -30 3 -30 30 0 27 3 30
30 30 27 0 30 -3 30 -30z"/>
<path d="M1680 2730 c0 -27 3 -30 30 -30 27 0 30 3 30 30 0 27 -3 30 -30 30
-27 0 -30 -3 -30 -30z"/>
<path d="M2040 2730 c0 -27 3 -30 30 -30 27 0 30 3 30 30 0 27 -3 30 -30 30
-27 0 -30 -3 -30 -30z"/>
<path d="M1800 2550 c0 -27 3 -30 30 -30 27 0 30 -3 30 -30 l0 -30 -60 0 -60
0 0 -60 0 -60 120 0 120 0 0 60 0 60 -30 0 c-27 0 -30 3 -30 30 0 27 -3 30
-30 30 -27 0 -30 3 -30 30 0 27 -3 30 -30 30 -27 0 -30 -3 -30 -30z m120 -120
c0 -27 -3 -30 -30 -30 -27 0 -30 3 -30 30 0 27 3 30 30 30 27 0 30 -3 30 -30z"/>
<path d="M300 2250 c0 -27 3 -30 30 -30 27 0 30 -3 30 -30 0 -27 3 -30 30 -30
27 0 30 3 30 30 0 27 -3 30 -30 30 -27 0 -30 3 -30 30 0 27 -3 30 -30 30 -27
0 -30 -3 -30 -30z"/>
<path d="M1920 2190 l0 -90 30 0 30 0 0 60 0 60 30 0 c27 0 30 3 30 30 l0 30
-60 0 -60 0 0 -90z"/>
<path d="M2160 2250 c0 -27 -3 -30 -30 -30 -27 0 -30 -3 -30 -30 l0 -30 60 0
60 0 0 -30 c0 -27 -3 -30 -30 -30 l-30 0 0 -90 0 -90 30 0 30 0 0 -60 0 -60
-30 0 c-27 0 -30 3 -30 30 l0 30 -60 0 -60 0 0 60 0 60 30 0 c27 0 30 3 30 30
0 27 -3 30 -30 30 -27 0 -30 -3 -30 -30 0 -27 -3 -30 -30 -30 -27 0 -30 3 -30
30 0 27 -3 30 -30 30 -27 0 -30 -3 -30 -30 0 -27 -3 -30 -30 -30 -27 0 -30 -3
-30 -30 l0 -30 -90 0 -90 0 0 30 0 30 60 0 60 0 0 30 c0 27 3 30 30 30 l30 0
0 90 0 90 -60 0 -60 0 0 -90 0 -90 -30 0 c-27 0 -30 3 -30 30 0 27 -3 30 -30
30 -27 0 -30 3 -30 30 0 27 3 30 30 30 27 0 30 3 30 30 0 27 -3 30 -30 30 -27
0 -30 -3 -30 -30 0 -27 -3 -30 -30 -30 -27 0 -30 -3 -30 -30 0 -27 3 -30 30
-30 l30 0 0 -90 0 -90 -30 0 -30 0 0 -60 0 -60 -30 0 -30 0 0 90 0 90 -60 0
-60 0 0 30 0 30 -60 0 -60 0 0 -30 c0 -27 3 -30 30 -30 l30 0 0 -150 0 -150
30 0 c27 0 30 -3 30 -30 l0 -30 -60 0 -60 0 0 30 0 30 -60 0 -60 0 0 30 0 30
60 0 60 0 0 30 0 30 -60 0 -60 0 0 -30 c0 -27 -3 -30 -30 -30 -27 0 -30 -3
-30 -30 0 -27 -3 -30 -30 -30 l-30 0 0 -60 0 -60 30 0 30 0 0 60 0 60 30 0
c27 0 30 -3 30 -30 0 -27 3 -30 30 -30 27 0 30 -3 30 -30 0 -27 -3 -30 -30
-30 -27 0 -30 -3 -30 -30 0 -27 -3 -30 -30 -30 -27 0 -30 -3 -30 -30 l0 -30
60 0 60 0 0 -30 c0 -27 3 -30 30 -30 27 0 30 -3 30 -30 0 -27 -3 -30 -30 -30
-27 0 -30 -3 -30 -30 0 -27 3 -30 30 -30 27 0 30 -3 30 -30 l0 -30 -60 0 -60
0 0 30 c0 27 -3 30 -30 30 -27 0 -30 -3 -30 -30 0 -27 -3 -30 -30 -30 -27 0
-30 -3 -30 -30 0 -27 3 -30 30 -30 l30 0 0 -60 0 -60 -30 0 c-27 0 -30 3 -30
30 0 27 -3 30 -30 30 -27 0 -30 3 -30 30 0 27 -3 30 -30 30 -27 0 -30 -3 -30
-30 0 -27 3 -30 30 -30 27 0 30 -3 30 -30 l0 -30 -60 0 -60 0 0 -60 0 -60 -90
0 -90 0 0 -30 c0 -27 -3 -30 -30 -30 -27 0 -30 -3 -30 -30 0 -27 3 -30 30 -30
27 0 30 -3 30 -30 0 -27 3 -30 30 -30 27 0 30 -3 30 -30 l0 -30 90 0 90 0 0
-60 0 -60 -30 0 c-27 0 -30 3 -30 30 0 27 -3 30 -30 30 -27 0 -30 -3 -30 -30
0 -27 3 -30 30 -30 27 0 30 -3 30 -30 0 -27 3 -30 30 -30 27 0 30 3 30 30 0
27 3 30 30 30 l30 0 0 60 0 60 -30 0 c-27 0 -30 3 -30 30 l0 30 60 0 60 0 0
30 0 30 -60 0 -60 0 0 60 0 60 30 0 c27 0 30 3 30 30 l0 30 90 0 90 0 0 30 0
30 150 0 150 0 0 60 0 60 30 0 c27 0 30 -3 30 -30 0 -27 3 -30 30 -30 27 0 30
3 30 30 0 27 -3 30 -30 30 -27 0 -30 3 -30 30 0 27 -3 30 -30 30 -27 0 -30 3
-30 30 0 27 3 30 30 30 27 0 30 3 30 30 0 27 3 30 30 30 27 0 30 -3 30 -30 0
-27 3 -30 30 -30 27 0 30 -3 30 -30 0 -27 3 -30 30 -30 l30 0 0 60 0 60 -30 0
c-27 0 -30 3 -30 30 l0 30 60 0 60 0 0 -30 c0 -27 3 -30 30 -30 27 0 30 -3 30
-30 0 -27 3 -30 30 -30 27 0 30 3 30 30 0 27 -3 30 -30 30 -27 0 -30 3 -30 30
0 27 3 30 30 30 27 0 30 3 30 30 l0 30 -90 0 -90 0 0 30 c0 27 3 30 30 30 27
0 30 3 30 30 l0 30 120 0 120 0 0 30 c0 27 -3 30 -30 30 -27 0 -30 3 -30 30 0
27 3 30 30 30 27 0 30 3 30 30 0 27 3 30 30 30 27 0 30 -3 30 -30 0 -27 3 -30
30 -30 27 0 30 3 30 30 0 27 3 30 30 30 27 0 30 -3 30 -30 l0 -30 60 0 60 0 0
30 c0 27 3 30 30 30 27 0 30 -3 30 -30 l0 -30 60 0 60 0 0 60 0 60 -60 0 -60
0 0 60 0 60 60 0 60 0 0 90 0 90 -30 0 c-27 0 -30 3 -30 30 l0 30 -60 0 -60 0
0 30 c0 27 -3 30 -30 30 -27 0 -30 3 -30 30 0 27 -3 30 -30 30 -27 0 -30 -3
-30 -30z m120 -240 l0 -90 -30 0 -30 0 0 90 0 90 30 0 30 0 0 -90z m120 0 c0
-27 -3 -30 -30 -30 -27 0 -30 3 -30 30 0 27 3 30 30 30 27 0 30 -3 30 -30z
m-720 -120 l0 -30 90 0 90 0 0 30 0 30 60 0 60 0 0 -30 c0 -27 -3 -30 -30 -30
l-30 0 0 -90 0 -90 -60 0 -60 0 0 -30 c0 -27 -3 -30 -30 -30 -27 0 -30 -3 -30
-30 0 -27 -3 -30 -30 -30 l-30 0 0 90 0 90 -60 0 -60 0 0 -30 c0 -27 -3 -30
-30 -30 -27 0 -30 -3 -30 -30 0 -27 -3 -30 -30 -30 -27 0 -30 3 -30 30 0 27 3
30 30 30 27 0 30 3 30 30 0 27 3 30 30 30 27 0 30 3 30 30 0 27 3 30 30 30
l30 0 0 60 0 60 30 0 c27 0 30 -3 30 -30z m-420 -360 c0 -27 3 -30 30 -30 27
0 30 -3 30 -30 l0 -30 -60 0 -60 0 0 60 0 60 30 0 c27 0 30 -3 30 -30z m300
-60 l0 -90 -90 0 -90 0 0 90 0 90 90 0 90 0 0 -90z m-120 -180 l0 -30 -90 0
-90 0 0 30 0 30 90 0 90 0 0 -30z m-300 -120 c0 -27 -3 -30 -30 -30 -27 0 -30
3 -30 30 0 27 3 30 30 30 27 0 30 -3 30 -30z m180 0 c0 -27 3 -30 30 -30 27 0
30 3 30 30 0 27 3 30 30 30 27 0 30 -3 30 -30 0 -27 -3 -30 -30 -30 -27 0 -30
-3 -30 -30 l0 -30 -60 0 -60 0 0 60 0 60 30 0 c27 0 30 -3 30 -30z m-480 -360
c0 -27 3 -30 30 -30 27 0 30 -3 30 -30 l0 -30 -60 0 -60 0 0 60 0 60 30 0 c27
0 30 -3 30 -30z"/>
<path d="M1800 1770 c0 -27 3 -30 30 -30 27 0 30 3 30 30 0 27 -3 30 -30 30
-27 0 -30 -3 -30 -30z"/>
<path d="M1440 1470 c0 -27 3 -30 30 -30 27 0 30 3 30 30 0 27 -3 30 -30 30
-27 0 -30 -3 -30 -30z"/>
<path d="M1080 2190 c0 -27 -3 -30 -30 -30 -27 0 -30 -3 -30 -30 0 -27 3 -30
30 -30 27 0 30 3 30 30 0 27 3 30 30 30 27 0 30 3 30 30 0 27 -3 30 -30 30
-27 0 -30 -3 -30 -30z"/>
<path d="M360 2070 c0 -27 3 -30 30 -30 27 0 30 3 30 30 0 27 -3 30 -30 30
-27 0 -30 -3 -30 -30z"/>
<path d="M2580 2010 c0 -27 -3 -30 -30 -30 l-30 0 0 -90 0 -90 30 0 c27 0 30
3 30 30 0 27 3 30 30 30 27 0 30 3 30 30 l0 30 60 0 60 0 0 30 c0 27 -3 30
-30 30 -27 0 -30 3 -30 30 l0 30 -60 0 -60 0 0 -30z"/>
<path d="M1020 1890 c0 -27 3 -30 30 -30 27 0 30 3 30 30 0 27 -3 30 -30 30
-27 0 -30 -3 -30 -30z"/>
<path d="M1200 1890 c0 -27 3 -30 30 -30 27 0 30 3 30 30 0 27 -3 30 -30 30
-27 0 -30 -3 -30 -30z"/>
<path d="M2100 1590 c0 -27 3 -30 30 -30 27 0 30 3 30 30 0 27 -3 30 -30 30
-27 0 -30 -3 -30 -30z"/>
<path d="M1920 1470 c0 -27 3 -30 30 -30 27 0 30 3 30 30 0 27 -3 30 -30 30
-27 0 -30 -3 -30 -30z"/>
<path d="M540 1080 l0 -60 -30 0 c-27 0 -30 3 -30 30 0 27 -3 30 -30 30 -27 0
-30 -3 -30 -30 0 -27 -3 -30 -30 -30 -27 0 -30 -3 -30 -30 0 -27 3 -30 30 -30
27 0 30 3 30 30 0 27 3 30 30 30 l30 0 0 -90 0 -90 30 0 30 0 0 90 0 90 30 0
c27 0 30 3 30 30 0 27 3 30 30 30 27 0 30 3 30 30 l0 30 -60 0 -60 0 0 -60z"/>
<path d="M720 1050 c0 -27 -3 -30 -30 -30 -27 0 -30 -3 -30 -30 l0 -30 60 0
60 0 0 60 0 60 -30 0 c-27 0 -30 -3 -30 -30z"/>
<path d="M1200 930 c0 -27 -3 -30 -30 -30 -27 0 -30 -3 -30 -30 0 -27 -3 -30
-30 -30 -27 0 -30 3 -30 30 0 27 -3 30 -30 30 -27 0 -30 -3 -30 -30 0 -27 3
-30 30 -30 l30 0 0 -60 0 -60 60 0 60 0 0 -30 c0 -27 3 -30 30 -30 27 0 30 3
30 30 l0 30 90 0 90 0 0 30 c0 27 -3 30 -30 30 -27 0 -30 3 -30 30 0 27 -3 30
-30 30 -27 0 -30 3 -30 30 0 27 -3 30 -30 30 -27 0 -30 3 -30 30 0 27 -3 30
-30 30 -27 0 -30 -3 -30 -30z m60 -60 c0 -27 3 -30 30 -30 27 0 30 -3 30 -30
0 -27 -3 -30 -30 -30 -27 0 -30 3 -30 30 0 27 -3 30 -30 30 -27 0 -30 -3 -30
-30 0 -27 -3 -30 -30 -30 -27 0 -30 3 -30 30 0 27 3 30 30 30 27 0 30 3 30 30
0 27 3 30 30 30 27 0 30 -3 30 -30z"/>
<path d="M360 870 c0 -27 3 -30 30 -30 27 0 30 3 30 30 0 27 -3 30 -30 30 -27
0 -30 -3 -30 -30z"/>
<path d="M1080 630 c0 -27 3 -30 30 -30 27 0 30 3 30 30 0 27 -3 30 -30 30
-27 0 -30 -3 -30 -30z"/>
<path d="M1200 450 c0 -27 3 -30 30 -30 27 0 30 3 30 30 0 27 -3 30 -30 30
-27 0 -30 -3 -30 -30z"/>
<path d="M660 330 c0 -27 3 -30 30 -30 27 0 30 -3 30 -30 l0 -30 60 0 60 0 0
-30 c0 -27 3 -30 30 -30 l30 0 0 60 0 60 -30 0 c-27 0 -30 3 -30 30 0 27 -3
30 -30 30 -27 0 -30 -3 -30 -30 0 -27 -3 -30 -30 -30 -27 0 -30 3 -30 30 0 27
-3 30 -30 30 -27 0 -30 -3 -30 -30z"/>
<path d="M1440 2550 c0 -27 3 -30 30 -30 27 0 30 3 30 30 0 27 -3 30 -30 30
-27 0 -30 -3 -30 -30z"/>
<path d="M360 1470 c0 -27 3 -30 30 -30 27 0 30 3 30 30 0 27 -3 30 -30 30
-27 0 -30 -3 -30 -30z"/>
<path d="M2520 1470 c0 -27 3 -30 30 -30 27 0 30 3 30 30 0 27 -3 30 -30 30
-27 0 -30 -3 -30 -30z"/>
<path d="M2280 1140 l0 -60 60 0 60 0 0 -30 c0 -27 3 -30 30 -30 27 0 30 3 30
30 0 27 3 30 30 30 27 0 30 3 30 30 0 27 -3 30 -30 30 -27 0 -30 -3 -30 -30 0
-27 -3 -30 -30 -30 -27 0 -30 3 -30 30 0 27 -3 30 -30 30 -27 0 -30 3 -30 30
0 27 -3 30 -30 30 l-30 0 0 -60z"/>
<path d="M2400 810 c0 -27 3 -30 30 -30 27 0 30 3 30 30 0 27 -3 30 -30 30
-27 0 -30 -3 -30 -30z"/>
<path d="M2100 630 c0 -27 3 -30 30 -30 27 0 30 3 30 30 0 27 -3 30 -30 30
-27 0 -30 -3 -30 -30z"/>
<path d="M2460 630 c0 -27 3 -30 30 -30 27 0 30 3 30 30 0 27 -3 30 -30 30
-27 0 -30 -3 -30 -30z"/>
<path d="M1440 390 c0 -27 3 -30 30 -30 27 0 30 3 30 30 0 27 -3 30 -30 30
-27 0 -30 -3 -30 -30z"/>
<path d="M2520 390 c0 -27 3 -30 30 -30 27 0 30 3 30 30 0 27 -3 30 -30 30
-27 0 -30 -3 -30 -30z"/>
<path d="M2520 2730 l0 -210 210 0 210 0 0 210 0 210 -210 0 -210 0 0 -210z
m360 0 l0 -150 -150 0 -150 0 0 150 0 150 150 0 150 0 0 -150z"/>
<path d="M2640 2730 l0 -90 90 0 90 0 0 90 0 90 -90 0 -90 0 0 -90z"/>
<path d="M840 2580 l0 -60 30 0 30 0 0 60 0 60 -30 0 -30 0 0 -60z"/>
<path d="M540 2430 c0 -27 3 -30 30 -30 27 0 30 3 30 30 0 27 -3 30 -30 30
-27 0 -30 -3 -30 -30z"/>
<path d="M0 210 l0 -210 210 0 210 0 0 210 0 210 -210 0 -210 0 0 -210z m360
0 l0 -150 -150 0 -150 0 0 150 0 150 150 0 150 0 0 -150z"/>
<path d="M120 210 l0 -90 90 0 90 0 0 90 0 90 -90 0 -90 0 0 -90z"/>
<path d="M2040 90 l0 -30 -60 0 -60 0 0 -30 0 -30 60 0 60 0 0 30 c0 27 3 30
30 30 27 0 30 3 30 30 0 27 -3 30 -30 30 -27 0 -30 -3 -30 -30z"/>
<path d="M1260 30 c0 -27 3 -30 30 -30 27 0 30 3 30 30 0 27 -3 30 -30 30 -27
0 -30 -3 -30 -30z"/>
<path d="M1380 30 l0 -30 60 0 60 0 0 30 0 30 -60 0 -60 0 0 -30z"/>
<path d="M2580 30 l0 -30 60 0 60 0 0 30 0 30 -60 0 -60 0 0 -30z"/>
</g>
</svg>
